{
	"asset":{
		"generator":"Created using the official Cinema 4D glTF Exporter 1.000x284978",
		"version":"2.0"
	},
	"scenes":[{
		"nodes":[0]
	}],
	"nodes":[{
		"name":"Extrude",
		"translation":[0.0,
		-1.7071466445922852,
		0.0],
		"rotation":[0.0,
		0.0,
		0.0,
		-1.0],
		"scale":[0.10000000149011612,
		0.10000000149011612,
		0.10000000149011612],
		"children":[1,
		2]
	},
	{
		"name":"Extrude-Mat",
		"mesh":0
	},
	{
		"name":"Extrude-Mat.2",
		"mesh":1
	}],
	"meshes":[{
		"name":"Extrude-Mat",
		"primitives":[{
			"attributes":{
				"POSITION":1,
				"NORMAL":2,
				"TEXCOORD_0":3
			},
			"indices":0,
			"material":0
		}]
	},
	{
		"name":"Extrude-Mat.2",
		"primitives":[{
			"attributes":{
				"POSITION":5,
				"NORMAL":6,
				"TEXCOORD_0":7
			},
			"indices":4,
			"material":1
		}]
	}],
	"accessors":[{
		"bufferView":0,
		"type":"SCALAR",
		"componentType":5123,
		"count":20832,
		"byteOffset":0,
		"min":[0],
		"max":[3914]
	},
	{
		"bufferView":1,
		"type":"VEC3",
		"componentType":5126,
		"count":3915,
		"byteOffset":0,
		"min":[-109.72050476074219,
		2.2948689460754396,
		-68.40975189208985],
		"max":[109.72050476074219,
		330.460693359375,
		68.40975189208985]
	},
	{
		"bufferView":1,
		"type":"VEC3",
		"componentType":5126,
		"count":3915,
		"byteOffset":12,
		"min":[-1.0,
		-1.0,
		-1.0],
		"max":[1.0,
		1.0,
		1.0]
	},
	{
		"bufferView":1,
		"type":"VEC2",
		"componentType":5126,
		"count":3915,
		"byteOffset":24,
		"min":[0.0,
		0.0],
		"max":[1.0,
		1.0]
	},
	{
		"bufferView":2,
		"type":"SCALAR",
		"componentType":5123,
		"count":29148,
		"byteOffset":0,
		"min":[0],
		"max":[5419]
	},
	{
		"bufferView":3,
		"type":"VEC3",
		"componentType":5126,
		"count":5420,
		"byteOffset":0,
		"min":[-45.69717788696289,
		212.5794677734375,
		41.01082992553711],
		"max":[45.69717788696289,
		272.79486083984377,
		66.39169311523438]
	},
	{
		"bufferView":3,
		"type":"VEC3",
		"componentType":5126,
		"count":5420,
		"byteOffset":12,
		"min":[-0.999592661857605,
		-0.9982318878173828,
		-0.9992483258247376],
		"max":[0.999592661857605,
		0.998591423034668,
		0.9992731213569641]
	},
	{
		"bufferView":3,
		"type":"VEC2",
		"componentType":5126,
		"count":5420,
		"byteOffset":24,
		"min":[0.0,
		0.0],
		"max":[1.0,
		1.0]
	}],
	"bufferViews":[{
		"buffer":0,
		"byteOffset":0,
		"byteLength":41664,
		"target":34963
	},
	{
		"buffer":0,
		"byteOffset":41664,
		"byteLength":125280,
		"target":34962,
		"byteStride":32
	},
	{
		"buffer":1,
		"byteOffset":0,
		"byteLength":58296,
		"target":34963
	},
	{
		"buffer":1,
		"byteOffset":58296,
		"byteLength":173440,
		"target":34962,
		"byteStride":32
	}],
	"buffers":[{
		"uri":"data:application/octet-stream;base64,",
		"byteLength":166944
	},
	{
		"uri":"data:application/octet-stream;base64,",
		"byteLength":231736
	}],
	"materials":[{
		"pbrMetallicRoughness":{
			"baseColorFactor":[0.7411764705882353,
			0.8784313725490196,
			0.2196078431372549,
			1.0],
			"metallicFactor":0.0,
			"roughnessFactor":0.5
		},
		"emissiveFactor":[0.0,
		0.0,
		0.0],
		"alphaMode":"OPAQUE",
		"doubleSided":true,
		"name":"Mat"
	},
	{
		"pbrMetallicRoughness":{
			"baseColorFactor":[0.0,
			0.0,
			0.0,
			1.0],
			"metallicFactor":0.0,
			"roughnessFactor":0.5
		},
		"emissiveFactor":[0.0,
		0.0,
		0.0],
		"alphaMode":"OPAQUE",
		"doubleSided":true,
		"name":"Mat.2"
	}]
}